<svg width="91" height="103" viewBox="0 0 91 103" fill="none" xmlns="http://www.w3.org/2000/svg">
<rect width="91" height="103" fill="#"/>
<mask id="path-1-outside-1_0_1" maskUnits="userSpaceOnUse" x="-1" y="-1" width="92" height="105" fill="black">
<rect fill="white" x="-1" y="-1" width="92" height="105"/>
<path d="M17.296 103V0.0879974H21.136V103H17.296ZM0.4 103V0.0879974H4.24V103H0.4ZM8.848 103V0.0879974H12.688V103H8.848ZM25.744 59.992V56.152H55.824C60.688 56.152 65.0827 55.0853 69.008 52.952C73.0187 50.8187 76.176 47.7893 78.48 43.864C80.8693 39.9387 82.064 35.3307 82.064 30.04C82.064 24.7493 80.8693 20.1413 78.48 16.216C76.176 12.2907 73.0187 9.26133 69.008 7.128C65.0827 4.99466 60.688 3.92799 55.824 3.92799H25.744V0.0879974H55.824C61.3707 0.0879974 66.4053 1.368 70.928 3.92799C75.536 6.40266 79.1627 9.90133 81.808 14.424C84.5387 18.8613 85.904 24.0667 85.904 30.04C85.904 36.0133 84.5387 41.2613 81.808 45.784C79.1627 50.2213 75.536 53.72 70.928 56.28C66.4053 58.7547 61.3707 59.992 55.824 59.992H25.744ZM25.744 51.544V47.704H55.824C60.7733 47.704 64.9547 46.168 68.368 43.096C71.8667 39.9387 73.616 35.5867 73.616 30.04C73.616 24.4933 71.8667 20.184 68.368 17.112C64.9547 13.9547 60.7733 12.376 55.824 12.376H25.744V8.536H55.824C59.8347 8.536 63.4613 9.432 66.704 11.224C69.9467 12.9307 72.5493 15.4053 74.512 18.648C76.4747 21.8053 77.456 25.6027 77.456 30.04C77.456 34.4773 76.4747 38.3173 74.512 41.56C72.5493 44.7173 69.9467 47.192 66.704 48.984C63.4613 50.6907 59.8347 51.544 55.824 51.544H25.744ZM25.744 43.096V39.256H55.824C58.384 39.256 60.56 38.5307 62.352 37.08C64.2293 35.544 65.168 33.1973 65.168 30.04C65.168 26.7973 64.2293 24.4507 62.352 23C60.56 21.5493 58.384 20.824 55.824 20.824H25.744V16.984H55.824C59.4933 16.984 62.608 18.0933 65.168 20.312C67.728 22.5307 69.008 25.7733 69.008 30.04C69.008 34.3067 67.728 37.5493 65.168 39.768C62.608 41.9867 59.4933 43.096 55.824 43.096H25.744ZM25.36 103V99.16H56.464C62.6933 99.16 68.0267 97.9653 72.464 95.576C76.9867 93.1013 80.4427 89.7733 82.832 85.592C85.3067 81.3253 86.544 76.504 86.544 71.128C86.544 67.8 86.1173 64.6427 85.264 61.656C84.496 58.584 83.2587 55.896 81.552 53.592C82.064 53.1653 82.5333 52.7387 82.96 52.312C83.472 51.8 83.8987 51.2453 84.24 50.648C88.336 56.024 90.384 62.8507 90.384 71.128C90.384 77.1867 88.976 82.648 86.16 87.512C83.4293 92.2907 79.504 96.088 74.384 98.904C69.3493 101.635 63.376 103 56.464 103H25.36ZM25.36 94.552V90.712H56.464C63.5467 90.712 68.9227 88.8773 72.592 85.208C76.2613 81.5387 78.096 76.8453 78.096 71.128C78.096 68.9093 77.84 66.776 77.328 64.728C76.816 62.5947 76.0907 60.7173 75.152 59.096C75.8347 58.7547 76.432 58.3707 76.944 57.944C77.456 57.5173 77.8827 57.1333 78.224 56.792C79.4187 58.6693 80.3147 60.8453 80.912 63.32C81.5947 65.7947 81.936 68.3973 81.936 71.128C81.936 77.8693 79.7173 83.4587 75.28 87.896C70.8427 92.3333 64.5707 94.552 56.464 94.552H25.36ZM25.36 86.104V82.264H56.464C61.1573 82.264 64.528 81.24 66.576 79.192C68.624 77.144 69.648 74.456 69.648 71.128C69.648 67.9707 68.8373 65.24 67.216 62.936C67.8133 62.7653 68.4107 62.552 69.008 62.296C69.6053 61.9547 70.2027 61.6133 70.8 61.272C72.592 64.1733 73.488 67.4587 73.488 71.128C73.488 75.5653 72.08 79.192 69.264 82.008C66.5333 84.7387 62.2667 86.104 56.464 86.104H25.36Z"/>
</mask>
<path d="M17.296 103V0.0879974H21.136V103H17.296ZM0.4 103V0.0879974H4.24V103H0.4ZM8.848 103V0.0879974H12.688V103H8.848ZM25.744 59.992V56.152H55.824C60.688 56.152 65.0827 55.0853 69.008 52.952C73.0187 50.8187 76.176 47.7893 78.48 43.864C80.8693 39.9387 82.064 35.3307 82.064 30.04C82.064 24.7493 80.8693 20.1413 78.48 16.216C76.176 12.2907 73.0187 9.26133 69.008 7.128C65.0827 4.99466 60.688 3.92799 55.824 3.92799H25.744V0.0879974H55.824C61.3707 0.0879974 66.4053 1.368 70.928 3.92799C75.536 6.40266 79.1627 9.90133 81.808 14.424C84.5387 18.8613 85.904 24.0667 85.904 30.04C85.904 36.0133 84.5387 41.2613 81.808 45.784C79.1627 50.2213 75.536 53.72 70.928 56.28C66.4053 58.7547 61.3707 59.992 55.824 59.992H25.744ZM25.744 51.544V47.704H55.824C60.7733 47.704 64.9547 46.168 68.368 43.096C71.8667 39.9387 73.616 35.5867 73.616 30.04C73.616 24.4933 71.8667 20.184 68.368 17.112C64.9547 13.9547 60.7733 12.376 55.824 12.376H25.744V8.536H55.824C59.8347 8.536 63.4613 9.432 66.704 11.224C69.9467 12.9307 72.5493 15.4053 74.512 18.648C76.4747 21.8053 77.456 25.6027 77.456 30.04C77.456 34.4773 76.4747 38.3173 74.512 41.56C72.5493 44.7173 69.9467 47.192 66.704 48.984C63.4613 50.6907 59.8347 51.544 55.824 51.544H25.744ZM25.744 43.096V39.256H55.824C58.384 39.256 60.56 38.5307 62.352 37.08C64.2293 35.544 65.168 33.1973 65.168 30.04C65.168 26.7973 64.2293 24.4507 62.352 23C60.56 21.5493 58.384 20.824 55.824 20.824H25.744V16.984H55.824C59.4933 16.984 62.608 18.0933 65.168 20.312C67.728 22.5307 69.008 25.7733 69.008 30.04C69.008 34.3067 67.728 37.5493 65.168 39.768C62.608 41.9867 59.4933 43.096 55.824 43.096H25.744ZM25.36 103V99.16H56.464C62.6933 99.16 68.0267 97.9653 72.464 95.576C76.9867 93.1013 80.4427 89.7733 82.832 85.592C85.3067 81.3253 86.544 76.504 86.544 71.128C86.544 67.8 86.1173 64.6427 85.264 61.656C84.496 58.584 83.2587 55.896 81.552 53.592C82.064 53.1653 82.5333 52.7387 82.96 52.312C83.472 51.8 83.8987 51.2453 84.24 50.648C88.336 56.024 90.384 62.8507 90.384 71.128C90.384 77.1867 88.976 82.648 86.16 87.512C83.4293 92.2907 79.504 96.088 74.384 98.904C69.3493 101.635 63.376 103 56.464 103H25.36ZM25.36 94.552V90.712H56.464C63.5467 90.712 68.9227 88.8773 72.592 85.208C76.2613 81.5387 78.096 76.8453 78.096 71.128C78.096 68.9093 77.84 66.776 77.328 64.728C76.816 62.5947 76.0907 60.7173 75.152 59.096C75.8347 58.7547 76.432 58.3707 76.944 57.944C77.456 57.5173 77.8827 57.1333 78.224 56.792C79.4187 58.6693 80.3147 60.8453 80.912 63.32C81.5947 65.7947 81.936 68.3973 81.936 71.128C81.936 77.8693 79.7173 83.4587 75.28 87.896C70.8427 92.3333 64.5707 94.552 56.464 94.552H25.36ZM25.36 86.104V82.264H56.464C61.1573 82.264 64.528 81.24 66.576 79.192C68.624 77.144 69.648 74.456 69.648 71.128C69.648 67.9707 68.8373 65.24 67.216 62.936C67.8133 62.7653 68.4107 62.552 69.008 62.296C69.6053 61.9547 70.2027 61.6133 70.8 61.272C72.592 64.1733 73.488 67.4587 73.488 71.128C73.488 75.5653 72.08 79.192 69.264 82.008C66.5333 84.7387 62.2667 86.104 56.464 86.104H25.36Z" fill="white"/>
<path d="M17.296 103H16.796V103.5H17.296V103ZM17.296 0.0879974V-0.412003H16.796V0.0879974H17.296ZM21.136 0.0879974H21.636V-0.412003H21.136V0.0879974ZM21.136 103V103.5H21.636V103H21.136ZM0.4 103H-0.0999999V103.5H0.4V103ZM0.4 0.0879974V-0.412003H-0.0999999V0.0879974H0.4ZM4.24 0.0879974H4.74V-0.412003H4.24V0.0879974ZM4.24 103V103.5H4.74V103H4.24ZM8.848 103H8.348V103.5H8.848V103ZM8.848 0.0879974V-0.412003H8.348V0.0879974H8.848ZM12.688 0.0879974H13.188V-0.412003H12.688V0.0879974ZM12.688 103V103.5H13.188V103H12.688ZM25.744 59.992H25.244V60.492H25.744V59.992ZM25.744 56.152V55.652H25.244V56.152H25.744ZM69.008 52.952L68.7732 52.5105L68.7692 52.5127L69.008 52.952ZM78.48 43.864L78.0528 43.604L78.0488 43.6109L78.48 43.864ZM78.48 16.216L78.0487 16.4691L78.0529 16.476L78.48 16.216ZM69.008 7.128L68.7692 7.56733L68.7732 7.56944L69.008 7.128ZM25.744 3.92799H25.244V4.42799H25.744V3.92799ZM25.744 0.0879974V-0.412003H25.244V0.0879974H25.744ZM70.928 3.92799L70.6816 4.36323L70.6914 4.36849L70.928 3.92799ZM81.808 14.424L81.3763 14.6765L81.3822 14.686L81.808 14.424ZM81.808 45.784L81.38 45.5256L81.3785 45.528L81.808 45.784ZM70.928 56.28L71.168 56.7186L71.1708 56.7171L70.928 56.28ZM25.744 51.544H25.244V52.044H25.744V51.544ZM25.744 47.704V47.204H25.244V47.704H25.744ZM68.368 43.096L68.7025 43.4676L68.703 43.4672L68.368 43.096ZM68.368 17.112L68.0284 17.4792L68.0381 17.4877L68.368 17.112ZM25.744 12.376H25.244V12.876H25.744V12.376ZM25.744 8.536V8.036H25.244V8.536H25.744ZM66.704 11.224L66.4621 11.6617L66.4711 11.6665L66.704 11.224ZM74.512 18.648L74.0842 18.9069L74.0874 18.912L74.512 18.648ZM74.512 41.56L74.9367 41.824L74.9398 41.8189L74.512 41.56ZM66.704 48.984L66.9369 49.4266L66.9458 49.4216L66.704 48.984ZM25.744 43.096H25.244V43.596H25.744V43.096ZM25.744 39.256V38.756H25.244V39.256H25.744ZM62.352 37.08L62.6666 37.4686L62.6686 37.467L62.352 37.08ZM62.352 23L62.0373 23.3887L62.0463 23.3956L62.352 23ZM25.744 20.824H25.244V21.324H25.744V20.824ZM25.744 16.984V16.484H25.244V16.984H25.744ZM65.168 20.312L65.4955 19.9342L65.168 20.312ZM65.168 39.768L65.4955 40.1458H65.4955L65.168 39.768ZM25.36 103H24.86V103.5H25.36V103ZM25.36 99.16V98.66H24.86V99.16H25.36ZM72.464 95.576L72.7011 96.0162L72.704 96.0146L72.464 95.576ZM82.832 85.592L82.3995 85.3411L82.3979 85.3439L82.832 85.592ZM85.264 61.656L84.7789 61.7773L84.781 61.7853L84.7832 61.7934L85.264 61.656ZM81.552 53.592L81.2319 53.2079L80.8692 53.5102L81.1502 53.8896L81.552 53.592ZM82.96 52.312L83.3136 52.6656L82.96 52.312ZM84.24 50.648L84.6377 50.345L84.1803 49.7447L83.8059 50.3999L84.24 50.648ZM86.16 87.512L85.7273 87.2615L85.7259 87.2639L86.16 87.512ZM74.384 98.904L74.6224 99.3435L74.625 99.3421L74.384 98.904ZM25.36 94.552H24.86V95.052H25.36V94.552ZM25.36 90.712V90.212H24.86V90.712H25.36ZM72.592 85.208L72.2384 84.8544L72.592 85.208ZM77.328 64.728L76.8418 64.8447L76.8429 64.8493L77.328 64.728ZM75.152 59.096L74.9284 58.6488L74.453 58.8865L74.7193 59.3465L75.152 59.096ZM76.944 57.944L76.6239 57.5599V57.5599L76.944 57.944ZM78.224 56.792L78.6458 56.5236L78.3112 55.9977L77.8705 56.4384L78.224 56.792ZM80.912 63.32L80.426 63.4373L80.4279 63.4452L80.43 63.453L80.912 63.32ZM75.28 87.896L75.6336 88.2495L75.28 87.896ZM25.36 86.104H24.86V86.604H25.36V86.104ZM25.36 82.264V81.764H24.86V82.264H25.36ZM67.216 62.936L67.0786 62.4552L66.4023 62.6485L66.8071 63.2237L67.216 62.936ZM69.008 62.296L69.205 62.7556L69.2312 62.7443L69.2561 62.7301L69.008 62.296ZM70.8 61.272L71.2254 61.0093L70.9715 60.5981L70.5519 60.8379L70.8 61.272ZM69.264 82.008L68.9104 81.6544L69.264 82.008ZM17.796 103V0.0879974H16.796V103H17.796ZM17.296 0.587997H21.136V-0.412003H17.296V0.587997ZM20.636 0.0879974V103H21.636V0.0879974H20.636ZM21.136 102.5H17.296V103.5H21.136V102.5ZM0.9 103V0.0879974H-0.0999999V103H0.9ZM0.4 0.587997H4.24V-0.412003H0.4V0.587997ZM3.74 0.0879974V103H4.74V0.0879974H3.74ZM4.24 102.5H0.4V103.5H4.24V102.5ZM9.348 103V0.0879974H8.348V103H9.348ZM8.848 0.587997H12.688V-0.412003H8.848V0.587997ZM12.188 0.0879974V103H13.188V0.0879974H12.188ZM12.688 102.5H8.848V103.5H12.688V102.5ZM26.244 59.992V56.152H25.244V59.992H26.244ZM25.744 56.652H55.824V55.652H25.744V56.652ZM55.824 56.652C60.7638 56.652 65.2418 55.5679 69.2468 53.3913L68.7692 52.5127C64.9236 54.6027 60.6122 55.652 55.824 55.652V56.652ZM69.2428 53.3934C73.3353 51.2166 76.5605 48.122 78.9112 44.1171L78.0488 43.6109C75.7915 47.4567 72.7021 50.4207 68.7732 52.5106L69.2428 53.3934ZM78.9071 44.124C81.351 40.1091 82.564 35.4082 82.564 30.04H81.564C81.564 35.2531 80.3877 39.7683 78.0529 43.604L78.9071 44.124ZM82.564 30.04C82.564 24.6718 81.351 19.9709 78.9071 15.956L78.0529 16.476C80.3877 20.3117 81.564 24.8269 81.564 30.04H82.564ZM78.9112 15.9629C76.5605 11.958 73.3353 8.8634 69.2428 6.68656L68.7732 7.56944C72.7021 9.65926 75.7915 12.6233 78.0488 16.4691L78.9112 15.9629ZM69.2468 6.68869C65.2418 4.51205 60.7638 3.42799 55.824 3.42799V4.42799C60.6122 4.42799 64.9236 5.47727 68.7692 7.56731L69.2468 6.68869ZM55.824 3.42799H25.744V4.42799H55.824V3.42799ZM26.244 3.92799V0.0879974H25.244V3.92799H26.244ZM25.744 0.587997H55.824V-0.412003H25.744V0.587997ZM55.824 0.587997C61.2904 0.587997 66.2392 1.84851 70.6817 4.36312L71.1743 3.49286C66.5714 0.887482 61.451 -0.412003 55.824 -0.412003V0.587997ZM70.6914 4.36849C75.2182 6.79954 78.7775 10.2331 81.3764 14.6764L82.2396 14.1716C79.5479 9.56959 75.8538 6.00578 71.1646 3.4875L70.6914 4.36849ZM81.3822 14.686C84.0576 19.0336 85.404 24.1454 85.404 30.04H86.404C86.404 23.988 85.0198 18.6891 82.2338 14.1619L81.3822 14.686ZM85.404 30.04C85.404 35.9344 84.0576 41.0907 81.38 45.5256L82.236 46.0424C85.0197 41.432 86.404 36.0922 86.404 30.04H85.404ZM81.3785 45.528C78.7793 49.8879 75.2177 53.3248 70.6852 55.8429L71.1708 56.7171C75.8543 54.1152 79.546 50.5547 82.2375 46.04L81.3785 45.528ZM70.688 55.8414C66.2445 58.2727 61.2933 59.492 55.824 59.492V60.492C61.448 60.492 66.5662 59.2366 71.168 56.7186L70.688 55.8414ZM55.824 59.492H25.744V60.492H55.824V59.492ZM26.244 51.544V47.704H25.244V51.544H26.244ZM25.744 48.204H55.824V47.204H25.744V48.204ZM55.824 48.204C60.8864 48.204 65.1899 46.629 68.7025 43.4676L68.0335 42.7243C64.7195 45.707 60.6603 47.204 55.824 47.204V48.204ZM68.703 43.4672C72.3255 40.1981 74.116 35.7008 74.116 30.04H73.116C73.116 35.4726 71.4079 39.6792 68.033 42.7248L68.703 43.4672ZM74.116 30.04C74.116 24.3796 72.3255 19.9214 68.6979 16.7363L68.0381 17.4877C71.4079 20.4465 73.116 24.607 73.116 30.04H74.116ZM68.7075 16.7449C65.1955 13.4963 60.8903 11.876 55.824 11.876V12.876C60.6563 12.876 64.7139 14.413 68.0285 17.479L68.7075 16.7449ZM55.824 11.876H25.744V12.876H55.824V11.876ZM26.244 12.376V8.536H25.244V12.376H26.244ZM25.744 9.036H55.824V8.036H25.744V9.036ZM55.824 9.036C59.7573 9.036 63.2996 9.91387 66.4622 11.6616L66.9458 10.7864C63.6231 8.95012 59.9121 8.036 55.824 8.036V9.036ZM66.4711 11.6665C69.6305 13.3293 72.167 15.7392 74.0843 18.9069L74.9398 18.3891C72.9317 15.0715 70.2628 12.532 66.9369 10.7815L66.4711 11.6665ZM74.0874 18.912C75.992 21.9759 76.956 25.6777 76.956 30.04H77.956C77.956 25.5276 76.9574 21.6348 74.9366 18.384L74.0874 18.912ZM76.956 30.04C76.956 34.4018 75.9921 38.149 74.0843 41.3011L74.9398 41.8189C76.9572 38.4857 77.956 34.5528 77.956 30.04H76.956ZM74.0874 41.296C72.1696 44.3811 69.6298 46.7958 66.4622 48.5464L66.9458 49.4216C70.2635 47.5882 72.929 45.0536 74.9366 41.824L74.0874 41.296ZM66.4711 48.5415C63.3069 50.2069 59.7614 51.044 55.824 51.044V52.044C59.908 52.044 63.6158 51.1744 66.9369 49.4265L66.4711 48.5415ZM55.824 51.044H25.744V52.044H55.824V51.044ZM26.244 43.096V39.256H25.244V43.096H26.244ZM25.744 39.756H55.824V38.756H25.744V39.756ZM55.824 39.756C58.4851 39.756 60.7757 38.9994 62.6666 37.4686L62.0374 36.6914C60.3443 38.062 58.2829 38.756 55.824 38.756V39.756ZM62.6686 37.467C64.6951 35.8089 65.668 33.2986 65.668 30.04H64.668C64.668 33.0961 63.7636 35.279 62.0354 36.693L62.6686 37.467ZM65.668 30.04C65.668 26.7032 64.6987 24.1815 62.6577 22.6044L62.0463 23.3956C63.7599 24.7198 64.668 26.8915 64.668 30.04H65.668ZM62.6666 22.6114C60.7757 21.0806 58.4851 20.324 55.824 20.324V21.324C58.2829 21.324 60.3443 22.018 62.0374 23.3886L62.6666 22.6114ZM55.824 20.324H25.744V21.324H55.824V20.324ZM26.244 20.824V16.984H25.244V20.824H26.244ZM25.744 17.484H55.824V16.484H25.744V17.484ZM55.824 17.484C59.3838 17.484 62.3793 18.5568 64.8405 20.6898L65.4955 19.9342C62.8367 17.6299 59.6028 16.484 55.824 16.484V17.484ZM64.8405 20.6898C67.2636 22.7898 68.508 25.8778 68.508 30.04H69.508C69.508 25.6689 68.1924 22.2715 65.4955 19.9342L64.8405 20.6898ZM68.508 30.04C68.508 34.2022 67.2636 37.2901 64.8405 39.3902L65.4955 40.1458C68.1924 37.8085 69.508 34.4111 69.508 30.04H68.508ZM64.8405 39.3902C62.3793 41.5232 59.3838 42.596 55.824 42.596V43.596C59.6028 43.596 62.8367 42.4501 65.4955 40.1458L64.8405 39.3902ZM55.824 42.596H25.744V43.596H55.824V42.596ZM25.86 103V99.16H24.86V103H25.86ZM25.36 99.66H56.464V98.66H25.36V99.66ZM56.464 99.66C62.7568 99.66 68.1756 98.453 72.7011 96.0162L72.227 95.1358C67.8777 97.4777 62.6299 98.66 56.464 98.66V99.66ZM72.704 96.0146C77.3018 93.4989 80.8277 90.1073 83.2661 85.8401L82.3979 85.3439C80.0576 89.4393 76.6715 92.7038 72.224 95.1374L72.704 96.0146ZM83.2645 85.8429C85.7873 81.4932 87.044 76.5839 87.044 71.128H86.044C86.044 76.4241 84.826 81.1574 82.3995 85.3411L83.2645 85.8429ZM87.044 71.128C87.044 67.7568 86.6117 64.553 85.7448 61.5186L84.7832 61.7934C85.6229 64.7323 86.044 67.8431 86.044 71.128H87.044ZM85.7491 61.5347C84.9668 58.4057 83.7034 55.6564 81.9538 53.2944L81.1502 53.8896C82.8139 56.1356 84.0252 58.7623 84.7789 61.7773L85.7491 61.5347ZM81.8721 53.9761C82.3945 53.5408 82.8752 53.1039 83.3136 52.6656L82.6065 51.9584C82.1915 52.3734 81.7335 52.7899 81.2319 53.2079L81.8721 53.9761ZM83.3136 52.6656C83.8553 52.1238 84.3096 51.534 84.6741 50.8961L83.8059 50.3999C83.4877 50.9567 83.0887 51.4762 82.6065 51.9584L83.3136 52.6656ZM83.8423 50.951C87.8581 56.2218 89.884 62.935 89.884 71.128H90.884C90.884 62.7664 88.8139 55.8262 84.6377 50.345L83.8423 50.951ZM89.884 71.128C89.884 77.1058 88.4958 82.4795 85.7273 87.2615L86.5927 87.7625C89.4562 82.8165 90.884 77.2675 90.884 71.128H89.884ZM85.7259 87.2639C83.0437 91.9577 79.1876 95.6914 74.143 98.4659L74.625 99.3421C79.8204 96.4846 83.8149 92.6236 86.5941 87.7601L85.7259 87.2639ZM74.1456 98.4645C69.1978 101.148 63.3099 102.5 56.464 102.5V103.5C63.4421 103.5 69.5008 102.121 74.6224 99.3435L74.1456 98.4645ZM56.464 102.5H25.36V103.5H56.464V102.5ZM25.86 94.552V90.712H24.86V94.552H25.86ZM25.36 91.212H56.464V90.212H25.36V91.212ZM56.464 91.212C63.6297 91.212 69.1524 89.3547 72.9456 85.5616L72.2384 84.8544C68.6929 88.4 63.4636 90.212 56.464 90.212V91.212ZM72.9456 85.5616C76.7186 81.7885 78.596 76.9631 78.596 71.128H77.596C77.596 76.7275 75.804 81.2889 72.2384 84.8544L72.9456 85.5616ZM78.596 71.128C78.596 68.8705 78.3355 66.6964 77.8131 64.6067L76.8429 64.8493C77.3445 66.8556 77.596 68.9481 77.596 71.128H78.596ZM77.8142 64.6113C77.2928 62.4388 76.5513 60.515 75.5847 58.8455L74.7193 59.3465C75.63 60.9196 76.3392 62.7505 76.8418 64.8447L77.8142 64.6113ZM75.3756 59.5432C76.0879 59.1871 76.7186 58.7827 77.2641 58.3281L76.6239 57.5599C76.1454 57.9586 75.5815 58.3223 74.9284 58.6488L75.3756 59.5432ZM77.2641 58.3281C77.7837 57.8951 78.2224 57.5007 78.5776 57.1455L77.8705 56.4384C77.543 56.7659 77.1283 57.1395 76.6239 57.5599L77.2641 58.3281ZM77.8022 57.0604C78.9633 58.8851 79.8397 61.0086 80.426 63.4373L81.398 63.2027C80.7896 60.682 79.874 58.4535 78.6458 56.5236L77.8022 57.0604ZM80.43 63.453C81.1 65.8817 81.436 68.4394 81.436 71.128H82.436C82.436 68.3553 82.0893 65.7077 81.394 63.187L80.43 63.453ZM81.436 71.128C81.436 77.7476 79.2626 83.2063 74.9265 87.5424L75.6336 88.2495C80.1721 83.711 82.436 77.9911 82.436 71.128H81.436ZM74.9265 87.5424C70.608 91.8608 64.4785 94.052 56.464 94.052V95.052C64.6628 95.052 71.0773 92.8058 75.6336 88.2495L74.9265 87.5424ZM56.464 94.052H25.36V95.052H56.464V94.052ZM25.86 86.104V82.264H24.86V86.104H25.86ZM25.36 82.764H56.464V81.764H25.36V82.764ZM56.464 82.764C61.2112 82.764 64.7439 81.7312 66.9296 79.5456L66.2225 78.8384C64.3121 80.7488 61.1035 81.764 56.464 81.764V82.764ZM66.9296 79.5456C69.0855 77.3896 70.148 74.5672 70.148 71.128H69.148C69.148 74.3448 68.1625 76.8984 66.2225 78.8384L66.9296 79.5456ZM70.148 71.128C70.148 67.8806 69.3126 65.0465 67.6249 62.6482L66.8071 63.2237C68.3621 65.4335 69.148 68.0607 69.148 71.128H70.148ZM67.3534 63.4168C67.9719 63.24 68.5891 63.0195 69.205 62.7556L68.811 61.8364C68.2322 62.0845 67.6548 62.2906 67.0786 62.4552L67.3534 63.4168ZM69.2561 62.7301C69.8534 62.3888 70.4507 62.0475 71.0481 61.7061L70.5519 60.8379C69.9546 61.1792 69.3573 61.5205 68.7599 61.8619L69.2561 62.7301ZM70.3746 61.5347C72.1141 64.3511 72.988 67.5441 72.988 71.128H73.988C73.988 67.3732 73.0699 63.9956 71.2254 61.0093L70.3746 61.5347ZM72.988 71.128C72.988 75.4493 71.6216 78.9433 68.9104 81.6544L69.6176 82.3615C72.5384 79.4407 73.988 75.6814 73.988 71.128H72.988ZM68.9104 81.6544C66.3116 84.2533 62.1999 85.604 56.464 85.604V86.604C62.3335 86.604 66.7551 85.224 69.6176 82.3615L68.9104 81.6544ZM56.464 85.604H25.36V86.604H56.464V85.604Z" fill="white" mask="url(#path-1-outside-1_0_1)"/>
</svg>
